<svg xmlns="http://www.w3.org/2000/svg" viewBox="0 0 224.13 283.46"><defs><style>.cls-1{fill:#0a3871;}</style></defs><g id="Capa_2" data-name="Capa 2"><g id="Capa_1-2" data-name="Capa 1"><path class="cls-1" d="M182.7,41.46c6,0,11.61-.06,17.23,0,13.36.18,23.59,10.21,24.17,23.63,0,.65,0,1.3,0,2q0,95.39,0,190.78c0,12-6.56,21.37-17.38,24.6a23.32,23.32,0,0,1-6.53,1q-67.58.07-135.15,0a23.82,23.82,0,0,1-23.49-22.16c-.3-5.27-.15-10.56-.2-15.84,0-1,0-2,0-3.23-5.89,0-11.42.08-17,0A24.21,24.21,0,0,1,.87,223.83,28.31,28.31,0,0,1,0,217Q0,121.17,0,25.35C0,10.73,10.26.12,24.83.08Q91.45-.08,158,.08c14.32,0,24.32,10.18,24.64,24.52C182.8,30.05,182.7,35.51,182.7,41.46ZM169.89,121.3c0-31.79-.15-63.58.11-95.36.06-7.65-5.08-13.1-13-13.06q-65.47.34-130.95,0c-7.95,0-13.22,5-13.21,13.17Q13,121,12.92,216c0,9,4.37,13.35,13.25,13.36,43.56,0,87.12-.06,130.68.06,8.44,0,13.21-5.58,13.15-13.25C169.74,184.51,169.89,152.91,169.89,121.3Zm12.81-67v3.73q0,78.72,0,157.43a34.33,34.33,0,0,1-.49,7.18C179.6,234.72,170,242.16,157,242.17q-49.54,0-99.08,0h-3.7c0,5.48.25,10.58,0,15.64-.5,8.24,5.84,12.95,12.89,12.93,43.76-.14,87.52-.07,131.28-.08a16.65,16.65,0,0,0,3.31-.22c6.38-1.26,9.54-5.66,9.54-13.25q0-94.71,0-189.41a28.91,28.91,0,0,0-.2-3.61c-.64-5.12-4.39-9.4-9.49-9.75C195.39,54,189.2,54.33,182.7,54.33Z"/></g></g></svg>