<svg xmlns="http://www.w3.org/2000/svg" viewBox="0 0 279.46 279.46"><defs><style>.cls-1{fill:#0a3871;}</style></defs><g id="Capa_2" data-name="Capa 2"><g id="Capa_1-2" data-name="Capa 1"><path class="cls-1" d="M81.25,2C71.9,5.36,65,12.05,59.57,23,52,38.34,49.37,55,47.94,67.73c-.41,3.65-2,5.66-5.59,7-13.3,4.84-23.68,11.08-31.73,19.08-11.56,11.47-12.36,26.78-2,39,6.35,7.5,15.09,13.52,27.51,19,21.84,9.57,47,15.11,79.16,17.44a351.17,351.17,0,0,0,54.53-.36c19.54-1.64,36.54-4.57,51.94-8.95,13.65-3.89,31.18-9.92,45.67-22.16,7.38-6.23,11.59-14.15,11.86-22.29s-3.17-15.82-10-22.38c-8-7.71-18.26-13.76-31.46-18.51-3.16-1.14-4.66-3-5-6.21-1.8-16.75-5-29.95-9.94-41.54-3-7.06-7.65-15.84-16.58-21.21a50.05,50.05,0,0,0-9.43-4c-1.42-.49-2.89-1-4.32-1.55h-9.46A83.62,83.62,0,0,0,160.7,7.58c-5.56,2.93-11.2,6-17.23,9.47a5.77,5.77,0,0,1-6.13.07L135,16c-8.63-4.4-17.56-8.95-26.5-13A35.24,35.24,0,0,0,101.1.79C100,.55,98.76.3,97.58,0H88.07L86,.56C84.35,1,82.78,1.43,81.25,2ZM223.88,86a9.15,9.15,0,0,1,7.89-.17c9.72,3.78,19.88,8.14,27.77,16.21,3.12,3.18,7.08,8.2,5.58,15.08-1.38,6.36-6.09,10.61-10,13.59-12.39,9.37-27,14.12-39.59,17.52a258.69,258.69,0,0,1-57.06,8.44c-2.26.09-4.53.12-6.79.12-1.9,0-3.79,0-5.66,0s-3.74,0-5.61,0c-30.3.4-56.63-2.88-80.55-10-10.8-3.22-23.32-7.64-34.2-16-4.36-3.35-9-7.65-10.13-14.2-.78-4.44.61-8.66,4.24-12.88,5.79-6.73,13.59-10.72,21.13-14.58,7.75-4,14.45-4.09,22.41-.39,13.88,6.45,30.12,10.61,51.12,13.11a218,218,0,0,0,49,.37C186.46,99.69,206.24,94.41,223.88,86ZM101.79,14.17a121.85,121.85,0,0,1,15.4,6.71l1.07.52c4.07,2,8,4.3,11.83,6.53l1.23.72c6,3.53,12,3.5,18.25-.08l1.81-1c5.71-3.28,11.62-6.67,17.73-9.52a71,71,0,0,1,14.78-4.82,18.25,18.25,0,0,1,19.88,7.88c3.28,4.84,6.87,10.63,8.63,16.87,2,7.25,3.47,14.73,4.84,22,.61,3.21,1.24,6.53,1.92,9.78.77,3.69-1.6,5.19-3.45,6a174,174,0,0,1-52,13.49c-5.35.53-10.78.88-16,1.21-2.42.15-4.83.31-7.25.48h-.17c-28.43-.52-53-5.48-75.15-15.16-2-.89-4.05-2.27-3.59-5.76,1.75-13.3,3.77-26.25,9.17-38.4a53.19,53.19,0,0,1,6.76-11.19C83.25,13,91.68,10.83,101.79,14.17Z"/><path class="cls-1" d="M263.13,239.31a79.73,79.73,0,0,0,1.05-8.2c.13-1.36.25-2.73.41-4.12l.21-1.77h3.68c1.37,0,2.78,0,4.16,0,3.8-.11,6.86-2.94,6.82-6.32s-3-6.13-6.69-6.26a80.51,80.51,0,0,0-8.07,0,5.39,5.39,0,0,1-5.7-3.33c-4.82-9.56-12.32-16.94-22.92-22.55-19.35-10.26-47-6.33-61.68,8.75a115.42,115.42,0,0,0-8.83,10.71c-1.34,1.76-2.72,3.59-4.17,5.39l-1,1.21L159,212.2c-12.86-5.68-26.21-5.5-39.69.54l-1.74.78-1.4-2.74-.83-1.63c-11.39-22.55-39.9-33.7-64.9-25.39-13.7,4.55-23.81,13-30,25.22-1,1.9-2.58,4-6.39,3.67a56.21,56.21,0,0,0-7.68,0,6.28,6.28,0,1,0,.06,12.56c1.44.05,2.9,0,4.31,0h3.69l.2,1.77c.18,1.56.3,3.1.42,4.59a49.68,49.68,0,0,0,1.2,8.8c5.13,19.69,18.34,32.39,39.28,37.77,1.36.35,2.78.65,4.15.95l1.76.37H74l1-.24c.91-.21,1.82-.43,2.73-.61,24.81-4.84,41.58-23.65,42.72-47.91a6.12,6.12,0,0,1,3.51-5.59c10.31-5.56,20.83-5.63,31.29-.22a6.12,6.12,0,0,1,3.64,5.87c.3,16.26,7.66,29.54,21.9,39.46a51.28,51.28,0,0,0,22.89,8.71,10,10,0,0,1,1.7.44l.28.09h11.66a5,5,0,0,1,1.48-.49C241.54,275.81,259,260.24,263.13,239.31ZM67.79,266.82h-.13a40,40,0,0,1-28.23-11.63,35,35,0,0,1,.39-50.28A39.83,39.83,0,0,1,67.6,193.66H68c21.34.21,38.62,16.69,38.51,36.73S89,266.82,67.79,266.82Zm144-.08c-.86,0-1.72,0-2.59-.08A40.1,40.1,0,0,1,181,253a34.38,34.38,0,0,1-8.3-25.6c1.79-19.75,20.62-35.15,41.14-33.6,21.37,1.6,37.35,18.31,36.38,38.06a35.42,35.42,0,0,1-12,24.94A39.68,39.68,0,0,1,211.82,266.74Z"/></g></g></svg>